<?xml version="1.0" encoding="UTF-8"?><svg xmlns="http://www.w3.org/2000/svg" xmlns:xlink="http://www.w3.org/1999/xlink" viewBox="0 0 50 50" version="1.1"><path d="M10.3 12C7.89 12 6 13.934 6 16.402c0 .91.262 1.473.516 1.907l.078.16.105.129c.051.07.153.215.285.402H0v7.125l.504 1.508 3 9L3.957 38h4.566l.47-1.348.007-.027.008.027L9.477 38h9.945l.469-1.34.23-.66h.957l.235.66.468 1.34H33v-.547c.383.258.996.547 1.8.547h8.298c2.511 0 4.402-1.89 4.402-4.402 0-.91-.262-1.473-.516-1.907l-.093-.187-.13-.156-.28-.348H49V19h-3.734a4.776 4.776 0 0 0 .535-2.2c0-2.648-2.153-4.8-4.801-4.8h-8v3.117l-.61-1.77L31.927 12zm0 2H24v2h-4v7h-3v-7h-5.402a.68.68 0 0 0-.696.7c0 .1.098.198.098.3l1.902 2.598c.098.203.297.402.297 1C13.2 22 12.102 23 10.801 23H2v-2h7.602c.398 0 .699-.3.597-.7 0-.1-.101-.198-.101-.3 0 0-1.496-2.2-1.797-2.598C8.199 17.2 8 17 8 16.402 8 15 9 14 10.3 14zm16 0h4.2l3.098 9h-2.5l-.696-2h-3.804l-.696 2h-2.5zm8.7 0h6a2.792 2.792 0 1 1 .7 5.5s.6.5 1.1 1.098c.2.203.4.402.798.402H47v2h-5.2c-.398 0-.698-.2-.8-.3-.777-.7-2.34-2.184-3-2.81V23h-3zm-6.598 1.402L27.2 19h2.399zM38 16v2h2.3c.602 0 1.102-.398 1.102-1s-.5-1-1.101-1zm-23.793 2H15v1.352a3.858 3.858 0 0 0-.313-.66l-.078-.145-.093-.125zM22 18h.91L22 20.824zm-7 3.938V25h-4.2c1.997 0 3.645-1.27 4.2-3.063zM28.02 23h.96l.235.66.469 1.34h-2.368l.47-1.34zM40 24.45c.383.257.992.55 1.8.55h.5c-1.741 0-3.25 1.04-3.96 2.547A4.81 4.81 0 0 0 34.098 25H40zM24.14 25H26v5.574l-1.402-4.207zM2.399 27h2.5L6.2 30.902 7.602 27h2.8l1.297 3.902L13 27h2.598l-3 9h-1.696L9 30.5 7.102 36H5.398zM18.5 27h4.2l3 9h-2.5l-.7-2h-3.8l-.7 2h-2.402zm9.5 0h6.098a2.792 2.792 0 1 1 .703 5.5s.5.5 1 1.098c.199.203.398.402.797.402h5.304c.297 0 .598-.3.598-.7 0-.1-.098-.198-.098-.3 0 0-1.902-2.2-2.203-2.5-.101-.2-.297-.398-.297-1 0-1.398 1.098-2.5 2.399-2.5H47v2h-3.3c-.302 0-.602.402-.602.8 0 .102.101.2.101.298l2 2.5c.102.203.301.402.301 1 0 1.5-1.102 2.402-2.402 2.402H34.8c-.399 0-.7-.2-.801-.3-.777-.7-2.344-2.192-3-2.813V36h-3zm-7.402 1.402L19.402 32h2.399zM31 29v2h2.3c.602 0 1.102-.398 1.102-1s-.5-1-1.101-1zm7.531 2.64l.032.06.222.214c.02.02.047.047.078.086h-.496c.059-.117.117-.238.164-.36z" id="surface1"/><metadata><rdf:RDF xmlns:rdf="http://www.w3.org/1999/02/22-rdf-syntax-ns#" xmlns:rdfs="http://www.w3.org/2000/01/rdf-schema#" xmlns:dc="http://purl.org/dc/elements/1.1/"><rdf:Description about="https://iconscout.com/legal#licenses" dc:title="star,wars" dc:description="star,wars" dc:publisher="Iconscout" dc:date="2017-12-09" dc:format="image/svg+xml" dc:language="en"><dc:creator><rdf:Bag><rdf:li>Icons8</rdf:li></rdf:Bag></dc:creator></rdf:Description></rdf:RDF></metadata></svg>